# xmcd CD database file
#
# Track frame offsets:
#	150
#	8173
#	23109
#	34856
#	54528
#
# Disc length: 1017 seconds
#
# Revision: 0
# Processed by: cddbd v1.5.1PL0 Copyright (c) Steve Scherf et al.
# Submitted via: CDex 1.51
#
DISCID=3403f705
DTITLE=ぬとぬとパラダイス - 突発ＣＤ 〜2004夏。今年は猛暑です〜
DYEAR=1900
DGENRE=
TTITLE0=KNIGHTS
TTITLE1=恋しぐれ兄慕情
TTITLE2=新世界
TTITLE3=がんばれニッポン
TTITLE4=CROSSING
EXTD=
EXTT0=
EXTT1=
EXTT2=
EXTT3=
EXTT4=
PLAYORDER=
